# xmcd
#
# Track frame offsets:
#	150
#	18689
#	33451
#	45320
#	62201
#	80169
#	99933
#	112244
#	129562
#	156911
#	172914
#	194019
#	214491
#	230885
#	248174
#	259711
#	277375
#	294450
#	313233
#	323425
#
# Disc length: 4564
#
# Revision: 2
# Processed by: cddbd v1.5.1PL0 Copyright (c) Steve Scherf et al.
# Submitted via: CDex 1.50
# Normalized: r1:DSETVAR1,TDELIM( - )
#
DISCID=3711d214
DTITLE=Various Artist - Soul Triple - CD2 - Mad About The Boy
DYEAR=2003
DGENRE=Soul
TTITLE0=Love Unlimited Orchestra - Love's Theme
TTITLE1=The Stylistics - I'm Stone In Love With You
TTITLE2=Curtis Mayfield and The Impressions - People Get Ready
TTITLE3=Bobby Blond - Ain't No Love In The Heart Of The City
TTITLE4=Jeffrey Osborne - On The Wings Of Love
TTITLE5=Brenda Russell - Piano In The Dark
TTITLE6=Dinah Washington - Mad About The Boy
TTITLE7=Dobie Gray - Drift Away
TTITLE8=Isaac Hayes - A Few More Kisses To Go
TTITLE9=Eddie Holman - Hey There Lonely Girl
TTITLE10=Dina Carroll - Don't Be A Stranger
TTITLE11=Oleta Adams - Get Here
TTITLE12=Vanessa Williams - Save The Best For Last
TTITLE13=Michael Jackson - I'll Be There
TTITLE14=Nina Simone - I Put A Spell On You
TTITLE15=Boyz II Men - I'll Make Love To You
TTITLE16=Captain and Tennille - Do That To Me One More Time
TTITLE17=The Dells - On The Dock Of The Bay
TTITLE18=Brook Benton - Endlessly
TTITLE19=The Floaters - Float On
EXTD=YEAR: 2003
EXTT0=
EXTT1=
EXTT2=
EXTT3=
EXTT4=
EXTT5=
EXTT6=
EXTT7=
EXTT8=
EXTT9=
EXTT10=
EXTT11=
EXTT12=
EXTT13=
EXTT14=
EXTT15=
EXTT16=
EXTT17=
EXTT18=
EXTT19=
PLAYORDER=
